<svg xmlns="http://www.w3.org/2000/svg" xmlns:xlink="http://www.w3.org/1999/xlink" width="24" height="24" viewBox="0 0 24 24" version="1.1">
<g id="surface1">
<path style=" stroke:none;fill-rule:nonzero;fill:rgb(97.647059%,72.941176%,28.235294%);fill-opacity:1;" d="M 19.355469 10.835938 C 16.792969 10.835938 14.710938 8.753906 14.710938 6.191406 C 14.710938 3.628906 16.792969 1.546875 19.355469 1.546875 C 21.917969 1.546875 24 3.628906 24 6.191406 C 24 8.753906 21.917969 10.835938 19.355469 10.835938 Z M 19.355469 10.835938 "/>
<path style=" stroke:none;fill-rule:nonzero;fill:rgb(97.647059%,72.941176%,28.235294%);fill-opacity:1;" d="M 4.644531 10.835938 C 2.082031 10.835938 0 8.753906 0 6.191406 C 0 3.628906 2.082031 1.546875 4.644531 1.546875 C 7.207031 1.546875 9.289062 3.628906 9.289062 6.191406 C 9.289062 8.753906 7.207031 10.835938 4.644531 10.835938 Z M 4.644531 10.835938 "/>
<path style=" stroke:none;fill-rule:nonzero;fill:rgb(97.647059%,72.941176%,28.235294%);fill-opacity:1;" d="M 12 23.222656 C 9.4375 23.222656 7.355469 21.140625 7.355469 18.578125 C 7.355469 16.015625 9.4375 13.933594 12 13.933594 C 14.5625 13.933594 16.644531 16.015625 16.644531 18.578125 C 16.644531 21.140625 14.5625 23.222656 12 23.222656 Z M 12 23.222656 "/>
<path style=" stroke:none;fill-rule:nonzero;fill:rgb(20%,20%,20%);fill-opacity:1;" d="M 19.742188 5.804688 L 18.96875 5.804688 C 18.539062 5.804688 18.195312 5.457031 18.195312 5.03125 C 18.195312 4.601562 18.539062 4.257812 18.96875 4.257812 L 19.742188 4.257812 C 20.167969 4.257812 20.515625 4.601562 20.515625 5.03125 L 21.289062 5.03125 C 21.289062 4.175781 20.597656 3.480469 19.742188 3.480469 L 19.742188 2.707031 L 18.96875 2.707031 L 18.96875 3.480469 C 18.113281 3.480469 17.417969 4.175781 17.417969 5.03125 C 17.417969 5.882812 18.113281 6.578125 18.96875 6.578125 L 19.742188 6.578125 C 20.167969 6.578125 20.515625 6.925781 20.515625 7.351562 C 20.515625 7.78125 20.167969 8.128906 19.742188 8.128906 L 18.96875 8.128906 C 18.539062 8.128906 18.195312 7.78125 18.195312 7.351562 L 17.417969 7.351562 C 17.417969 8.207031 18.113281 8.902344 18.96875 8.902344 L 18.96875 9.675781 L 19.742188 9.675781 L 19.742188 8.902344 C 20.597656 8.902344 21.289062 8.207031 21.289062 7.351562 C 21.289062 6.5 20.597656 5.804688 19.742188 5.804688 Z M 19.742188 5.804688 "/>
<path style=" stroke:none;fill-rule:nonzero;fill:rgb(20%,20%,20%);fill-opacity:1;" d="M 4.644531 8.902344 C 5.410156 8.902344 6.144531 8.570312 6.660156 8 L 6.085938 7.480469 C 5.714844 7.890625 5.191406 8.128906 4.644531 8.128906 C 4.015625 8.128906 3.460938 7.820312 3.105469 7.351562 L 5.03125 7.351562 L 5.03125 6.578125 L 2.75 6.578125 C 2.722656 6.453125 2.710938 6.324219 2.710938 6.191406 C 2.710938 6.058594 2.722656 5.929688 2.75 5.804688 L 5.03125 5.804688 L 5.03125 5.03125 L 3.105469 5.03125 C 3.460938 4.5625 4.015625 4.257812 4.644531 4.257812 C 5.191406 4.257812 5.714844 4.492188 6.085938 4.902344 L 6.660156 4.382812 C 6.144531 3.8125 5.410156 3.480469 4.644531 3.480469 C 3.566406 3.480469 2.636719 4.117188 2.199219 5.03125 L 1.546875 5.03125 L 1.546875 5.804688 L 1.964844 5.804688 C 1.949219 5.929688 1.933594 6.058594 1.933594 6.191406 C 1.933594 6.324219 1.949219 6.453125 1.964844 6.578125 L 1.546875 6.578125 L 1.546875 7.351562 L 2.199219 7.351562 C 2.636719 8.265625 3.566406 8.902344 4.644531 8.902344 Z M 4.644531 8.902344 "/>
<path style=" stroke:none;fill-rule:nonzero;fill:rgb(20%,20%,20%);fill-opacity:1;" d="M 13.636719 16.007812 L 12 17.972656 L 10.363281 16.007812 L 9.765625 16.503906 L 11.496094 18.578125 L 10.453125 18.578125 L 10.453125 19.351562 L 11.613281 19.351562 L 11.613281 19.738281 L 10.453125 19.738281 L 10.453125 20.515625 L 11.613281 20.515625 L 11.613281 21.289062 L 12.386719 21.289062 L 12.386719 20.515625 L 13.546875 20.515625 L 13.546875 19.738281 L 12.386719 19.738281 L 12.386719 19.351562 L 13.546875 19.351562 L 13.546875 18.578125 L 12.503906 18.578125 L 14.234375 16.503906 Z M 13.636719 16.007812 "/>
<path style=" stroke:none;fill-rule:nonzero;fill:rgb(20%,20%,20%);fill-opacity:1;" d="M 17.339844 16.695312 L 17.824219 17.296875 C 19.515625 15.933594 20.683594 14.019531 21.105469 11.902344 L 20.347656 11.75 C 19.957031 13.691406 18.890625 15.445312 17.339844 16.695312 Z M 17.339844 16.695312 "/>
<path style=" stroke:none;fill-rule:nonzero;fill:rgb(20%,20%,20%);fill-opacity:1;" d="M 3.652344 11.75 L 2.894531 11.902344 C 3.320312 14.019531 4.484375 15.933594 6.175781 17.296875 L 6.660156 16.695312 C 5.109375 15.445312 4.042969 13.691406 3.652344 11.75 Z M 3.652344 11.75 "/>
<path style=" stroke:none;fill-rule:nonzero;fill:rgb(20%,20%,20%);fill-opacity:1;" d="M 8.359375 1.515625 L 8.660156 2.226562 C 10.777344 1.324219 13.222656 1.324219 15.339844 2.226562 L 15.640625 1.515625 C 13.332031 0.53125 10.667969 0.53125 8.359375 1.515625 Z M 8.359375 1.515625 "/>
</g>
</svg>
